<?xml version="1.0" standalone="no"?>
<!DOCTYPE svg PUBLIC "-//W3C//DTD SVG 20010904//EN"
 "http://www.w3.org/TR/2001/REC-SVG-20010904/DTD/svg10.dtd">
<svg version="1.0" xmlns="http://www.w3.org/2000/svg"
 width="102.000000pt" height="102.000000pt" viewBox="0 0 102.000000 102.000000"
 preserveAspectRatio="xMidYMid meet">

<g transform="translate(0.000000,102.000000) scale(0.100000,-0.100000)"
fill="#000000" stroke="none">
<path d="M2 513 l0 -508 506 1 507 0 0 200 c0 109 -2 215 -4 234 -2 19 0 154
4 299 4 177 3 266 -4 270 -12 8 -640 3 -653 -5 -4 -3 -12 -3 -17 0 -9 6 -54 7
-148 3 -29 -1 -53 1 -53 5 0 3 -20 6 -45 6 -24 -1 -42 -5 -39 -10 3 -4 1 -8
-5 -8 -5 0 -13 5 -16 10 -3 6 -12 10 -19 10 -11 0 -14 -94 -14 -507z m204 447
c8 0 14 -4 14 -9 0 -5 53 -9 118 -9 182 0 246 -2 240 -7 -3 -3 -85 -6 -182 -6
-115 1 -175 -3 -171 -9 3 -6 34 -10 68 -10 34 0 69 -5 77 -11 11 -8 7 -9 -19
-5 -18 3 -79 6 -135 7 -89 1 -97 2 -66 12 l35 11 -32 4 c-18 2 -33 7 -33 12 0
5 14 7 30 4 26 -6 30 -4 31 17 0 13 3 18 6 12 2 -7 11 -13 19 -13z m156 -2
c-7 -7 -12 -8 -12 -2 0 14 12 26 19 19 2 -3 -1 -11 -7 -17z m511 -35 c-4 -10
-9 -11 -16 -4 -6 6 -31 12 -56 13 l-46 1 45 6 c33 4 44 10 42 21 -3 11 1 10
17 -4 11 -10 17 -25 14 -33z m-781 15 c-7 -7 -12 -8 -12 -2 0 14 12 26 19 19
2 -3 -1 -11 -7 -17z m637 -3 c2 -3 -20 -5 -50 -5 -33 0 -49 4 -41 9 13 8 82 5
91 -4z m-112 -1 c-3 -3 -12 -4 -19 -1 -8 3 -5 6 6 6 11 1 17 -2 13 -5z m338
-57 c2 -9 6 -21 9 -26 3 -5 -1 -12 -10 -15 -8 -3 -12 -10 -9 -16 3 -5 1 -10
-4 -10 -6 0 -11 7 -11 15 0 17 -16 20 -25 5 -10 -17 6 -62 21 -56 8 3 14 1 14
-5 0 -5 11 -15 25 -21 14 -6 25 -15 25 -20 0 -5 -9 -4 -20 2 -11 6 -25 8 -30
5 -6 -3 -10 -2 -10 4 0 5 -9 8 -20 6 -11 -2 -20 0 -20 5 0 5 -14 17 -31 25
-24 13 -34 14 -45 4 -20 -17 -17 -35 8 -53 32 -22 18 -28 -21 -8 -19 9 -29 18
-23 20 19 6 14 20 -9 27 -15 5 -17 10 -10 19 13 16 4 26 -22 26 -11 0 -17 3
-14 7 4 3 1 13 -6 21 -10 13 -8 14 11 8 18 -6 22 -4 22 13 0 24 15 28 23 6 5
-11 12 -12 37 -4 57 20 32 30 -65 27 -52 -2 -91 0 -86 5 15 15 236 13 226 -2
-6 -11 33 -26 42 -17 3 3 6 20 5 38 0 32 0 32 10 8 5 -14 11 -33 13 -43z m40
23 c-3 -5 -10 -10 -16 -10 -5 0 -9 5 -9 10 0 6 7 10 16 10 8 0 12 -4 9 -10z
m-508 -35 c28 -12 38 -11 82 6 28 10 51 16 51 11 0 -4 -25 -15 -55 -24 -53
-17 -54 -17 -107 7 -53 25 -32 25 29 0z m-179 -25 c-7 -11 -16 -20 -20 -20 -3
0 -15 -3 -25 -7 -16 -6 -16 -5 -3 8 13 13 50 38 58 39 1 0 -3 -9 -10 -20z
m-221 -12 c-3 -8 -6 -5 -6 6 -1 11 2 17 5 13 3 -3 4 -12 1 -19z m143 -18 c-13
-9 -13 -11 0 -20 13 -8 13 -10 -2 -10 -9 0 -18 6 -21 13 -4 10 -7 10 -18 0 -7
-7 -20 -13 -29 -13 -9 0 -28 -6 -43 -12 -21 -10 -27 -21 -29 -48 l-1 -35 -4
33 c-4 31 -7 33 -31 28 l-27 -6 28 17 c15 10 28 27 28 38 1 18 2 18 6 2 3 -13
10 -16 21 -12 27 11 106 33 122 34 13 1 13 0 0 -9z m-34 -66 c-5 -12 -1 -14
17 -9 19 5 20 4 4 -5 -21 -13 -38 -5 -30 15 3 8 7 15 10 15 3 0 2 -7 -1 -16z
m64 2 c0 -3 -4 -8 -10 -11 -5 -3 -10 -1 -10 4 0 6 5 11 10 11 6 0 10 -2 10 -4z
m-144 -42 c-5 -12 -2 -15 11 -10 16 5 16 5 -1 -8 -10 -8 -16 -18 -13 -23 3 -4
-7 -9 -21 -10 -26 -1 -26 -1 -7 13 11 8 21 19 21 24 1 6 2 15 3 20 0 6 4 10 7
10 3 0 3 -7 0 -16z m825 -248 c0 -161 3 -254 9 -251 14 8 12 2 -5 -31 l-15
-29 0 33 c0 17 -5 32 -11 32 -8 0 -8 4 1 15 13 16 12 179 -2 208 -5 10 -5 17
2 17 6 0 10 37 10 99 0 96 -1 100 -27 121 l-28 22 28 -16 27 -16 0 31 c0 18 2
30 5 27 3 -3 6 -121 6 -262z m-599 242 c-6 -6 -22 -13 -34 -15 -12 -2 -37 -12
-56 -23 -47 -28 -54 -25 -11 4 29 20 72 38 109 45 2 1 -1 -4 -8 -11z m183 2
c-4 -7 2 -9 18 -5 36 9 87 -19 84 -47 -1 -14 5 -24 18 -27 11 -3 21 -10 22
-16 6 -38 5 -55 -1 -90 -17 -99 -63 -138 -163 -140 -34 -1 -60 1 -58 5 2 3 -9
11 -23 18 -37 16 -62 61 -62 110 0 22 -5 42 -11 44 -7 2 -7 12 0 32 6 15 8 33
4 39 -4 7 0 8 12 4 24 -10 49 11 34 29 -8 9 -5 16 13 25 44 24 124 37 113 19z
m225 -25 c25 -13 37 -24 28 -25 -9 0 -19 4 -23 9 -3 5 -19 12 -35 16 -16 4
-32 11 -35 16 -10 16 18 9 65 -16z m-437 -17 c-6 -7 -15 -26 -21 -43 -7 -19
-11 -23 -11 -12 -1 18 -3 18 -38 -3 -35 -21 -38 -21 -50 -4 -7 10 -13 23 -13
28 0 6 4 5 9 -3 7 -11 14 -10 39 8 48 34 104 53 85 29z m445 -17 c52 -27 127
-102 129 -129 2 -20 0 -20 -25 9 -28 34 -99 89 -114 89 -5 0 -7 -10 -4 -22 3
-13 -3 -5 -13 17 -31 63 -29 65 27 36z m-708 -11 c0 -5 -4 -10 -10 -10 -5 0
-10 5 -10 10 0 6 5 10 10 10 6 0 10 -4 10 -10z m40 -31 c0 -22 -4 -38 -9 -35
-5 3 -7 20 -5 38 3 40 3 38 9 38 3 0 5 -18 5 -41z m-50 -9 c0 -5 -5 -10 -11
-10 -5 0 -7 5 -4 10 3 6 8 10 11 10 2 0 4 -4 4 -10z m128 -49 c-24 -26 -36
-33 -45 -26 -14 13 25 58 44 51 7 -3 12 -2 12 2 -3 16 2 23 11 17 7 -4 -2 -22
-22 -44z m-62 4 c-15 -12 -18 -22 -13 -59 4 -26 2 -48 -3 -51 -11 -7 -12 -2
-15 67 -2 26 1 46 5 43 4 -3 13 2 20 10 7 9 16 13 19 9 3 -3 -3 -12 -13 -19z
m231 -27 c-3 -8 -6 -5 -6 6 -1 11 2 17 5 13 3 -3 4 -12 1 -19z m350 0 c-3 -8
-6 -5 -6 6 -1 11 2 17 5 13 3 -3 4 -12 1 -19z m-637 3 c0 -6 -4 -13 -10 -16
-5 -3 -10 1 -10 9 0 9 5 16 10 16 6 0 10 -4 10 -9z m270 -36 c0 -18 -1 -18
-16 3 -8 12 -12 27 -8 33 8 14 24 -8 24 -36z m397 1 c-23 -23 -28 -20 -15 9 7
16 15 22 21 16 6 -6 4 -15 -6 -25z m266 21 c3 -8 -3 -13 -14 -13 -22 0 -25 12
-6 19 6 3 13 6 13 6 1 1 4 -5 7 -12z m-153 -47 c0 -5 -4 -10 -10 -10 -5 0 -10
5 -10 10 0 6 5 10 10 10 6 0 10 -4 10 -10z m-473 -33 c4 -8 17 -19 28 -26 17
-10 17 -12 2 -7 -10 3 -23 6 -27 6 -5 0 -14 9 -20 20 -12 23 4 29 17 7z m327
-2 c-4 -9 -15 -20 -26 -26 -19 -10 -19 -10 -3 15 19 28 38 35 29 11z m-597
-27 c-3 -8 -6 -5 -6 6 -1 11 2 17 5 13 3 -3 4 -12 1 -19z m548 -38 c-3 -5 -12
-10 -18 -10 -7 0 -6 4 3 10 19 12 23 12 15 0z m-260 -48 c-3 -3 -16 5 -28 17
l-22 23 28 -17 c15 -10 25 -20 22 -23z m279 3 c-10 -8 -23 -15 -28 -15 -6 0
-1 7 10 15 10 8 23 15 28 15 6 0 1 -7 -10 -15z m-295 -56 c19 -51 21 -63 10
-70 -8 -5 -20 -7 -26 -4 -7 2 -13 0 -13 -6 0 -6 -5 -7 -12 -3 -9 6 -9 9 0 12
18 6 14 26 -14 67 -16 24 -20 35 -11 32 21 -8 29 3 16 20 -9 10 -7 13 7 13 14
0 25 -16 43 -61z m427 50 c3 -6 -2 -20 -13 -31 -20 -19 -20 -19 -15 11 4 32
16 40 28 20z m-617 -9 c4 0 5 -16 3 -35 -4 -37 -11 -42 -29 -24 -8 8 -17 8
-33 -1 -32 -17 -37 -3 -7 21 15 11 27 27 27 36 0 10 6 13 16 9 9 -3 19 -6 23
-6z m391 0 c-20 -13 -97 -13 -105 0 -4 6 17 10 57 10 44 0 59 -3 48 -10z m133
-7 c-5 -13 -2 -15 15 -11 28 8 29 -8 2 -22 -15 -8 -19 -17 -15 -31 4 -10 2
-19 -3 -19 -5 0 -12 -9 -15 -20 -5 -18 -8 -19 -30 -9 l-25 11 27 59 c14 32 31
58 38 59 7 0 10 -7 6 -17z m177 3 c0 -3 -4 -8 -10 -11 -5 -3 -10 -1 -10 4 0 6
5 11 10 11 6 0 10 -2 10 -4z m-450 -26 c0 -5 -2 -10 -4 -10 -3 0 -8 5 -11 10
-3 6 -1 10 4 10 6 0 11 -4 11 -10z m300 -30 c0 -5 -4 -10 -10 -10 -5 0 -10 5
-10 10 0 6 5 10 10 10 6 0 10 -4 10 -10z m-440 -14 c0 -3 -4 -8 -10 -11 -5 -3
-10 -1 -10 4 0 6 5 11 10 11 6 0 10 -2 10 -4z m520 -6 c0 -5 -5 -10 -11 -10
-5 0 -7 5 -4 10 3 6 8 10 11 10 2 0 4 -4 4 -10z m-160 -50 c0 -5 -4 -10 -10
-10 -5 0 -10 5 -10 10 0 6 5 10 10 10 6 0 10 -4 10 -10z m-550 -36 c-6 -6 -6
-15 -2 -19 4 -5 2 -5 -4 -2 -6 4 -9 18 -6 33 3 18 7 22 13 13 4 -7 4 -18 -1
-25z m833 16 c3 -13 0 -20 -10 -20 -8 0 -11 5 -8 10 3 6 1 10 -4 10 -6 0 -11
5 -11 10 0 19 28 10 33 -10z m-698 -10 c3 -6 -1 -7 -9 -4 -18 7 -21 14 -7 14
6 0 13 -4 16 -10z m-50 -10 c3 -5 -1 -10 -9 -10 -9 0 -16 5 -16 10 0 6 4 10 9
10 6 0 13 -4 16 -10z m45 -21 c0 -6 -4 -7 -10 -4 -5 3 -10 11 -10 16 0 6 5 7
10 4 6 -3 10 -11 10 -16z m70 -5 c0 -8 -4 -14 -9 -14 -6 0 -9 9 -8 19 1 22 17
18 17 -5z m30 -6 c0 -5 -4 -8 -10 -8 -5 0 -10 10 -10 23 0 18 2 19 10 7 5 -8
10 -18 10 -22z m534 7 c3 -8 1 -15 -4 -15 -6 0 -10 7 -10 15 0 8 2 15 4 15 2
0 6 -7 10 -15z m-271 -13 c-3 -11 4 -13 85 -15 37 -1 43 -13 10 -18 -37 -7
-348 2 -348 9 0 4 17 8 38 9 20 1 41 8 45 15 12 18 173 18 170 0z m-413 -2 c0
-5 -2 -10 -4 -10 -3 0 -8 5 -11 10 -3 6 -1 10 4 10 6 0 11 -4 11 -10z m668
-25 c-3 -3 -9 2 -12 12 -6 14 -5 15 5 6 7 -7 10 -15 7 -18z m57 5 c3 -5 -1
-10 -10 -10 -9 0 -13 5 -10 10 3 6 8 10 10 10 2 0 7 -4 10 -10z m-695 -4 c0
-3 -4 -8 -10 -11 -5 -3 -10 -1 -10 4 0 6 5 11 10 11 6 0 10 -2 10 -4z m533
-47 c-9 -9 -12 -7 -10 9 1 14 5 18 11 12 7 -7 6 -14 -1 -21z"/>
<path d="M835 860 c-31 -20 -52 -50 -36 -50 24 0 60 24 65 43 7 29 5 29 -29 7z"/>
<path d="M836 811 c-6 -9 35 -24 43 -15 6 5 -18 24 -31 24 -4 0 -9 -4 -12 -9z"/>
<path d="M458 683 c7 -3 16 -2 19 1 4 3 -2 6 -13 5 -11 0 -14 -3 -6 -6z"/>
<path d="M136 533 c-6 -14 -5 -15 5 -6 7 7 10 15 7 18 -3 3 -9 -2 -12 -12z"/>
</g>
</svg>
